<?xml version="1.0" standalone="no"?><!DOCTYPE svg PUBLIC "-//W3C//DTD SVG 1.1//EN" "http://www.w3.org/Graphics/SVG/1.1/DTD/svg11.dtd"><svg t="1662446457110" class="icon" viewBox="0 0 1024 1024" version="1.1" xmlns="http://www.w3.org/2000/svg" p-id="4396" xmlns:xlink="http://www.w3.org/1999/xlink" width="200" height="200"><path d="M621.8 676.7c-15.4 0-28.9-11-32-26.1L570 554.3l-5.4 0.5c-17.4 1.7-35.2 2.6-52.8 2.6-17.1 0-34.4-0.8-51.3-2.4l-5.4-0.5-19.7 96.1c-3.1 15.1-16.6 26.1-32 26.1-2.2 0-4.5-0.2-6.6-0.7-8.6-1.8-15.9-6.7-20.8-14-4.8-7.3-6.5-16-4.7-24.6l19.3-93.9-5.6-1.4c-29.5-7.3-58.4-17.2-86-29.4l-4.1-1.8-74.9 90c-6.2 7.5-15.4 11.8-25.2 11.8-7.7 0-15.1-2.7-20.9-7.6-13.9-11.5-15.8-32.2-4.2-46.1l66.3-79.7-5.7-3.7c-32.1-20.6-62.2-45-89.3-72.4-6.1-6.2-9.5-14.5-9.4-23.2 0.1-8.7 3.5-16.9 9.7-23.1 6.2-6.1 14.3-9.5 23-9.5 8.8 0 17.1 3.5 23.3 9.7 31.6 32 67.4 58.9 106.5 80.1l0.6 0.3 0.7 0.2c4.5 1.2 8.7 3.4 12.3 6.4l0.5 0.4 0.6 0.3c38.1 18.8 78.7 32.2 120.9 39.8l0.4 0.1h0.4c1.9 0.1 3.7 0.3 5.4 0.7 0.9 0.2 1.9 0.4 2.9 0.7l0.4 0.1 0.4 0.1c23.7 3.7 48 5.6 72.2 5.6 25.6 0 51.3-2.1 76.3-6.3h0.2c0.2 0 0.4-0.1 0.6-0.1l0.2-0.1c1.1-0.2 2.2-0.4 3.3-0.5h0.4c44.4-7.8 87.1-22.1 126.9-42.5l0.3-0.2 0.3-0.2c1.9-1.2 3.9-2.3 5.9-3.1l0.3-0.1 0.3-0.2c40.2-21.5 77-49 109.4-81.8 6.2-6.3 14.5-9.8 23.3-9.8 8.6 0 16.8 3.3 22.9 9.4 6.2 6.1 9.7 14.3 9.8 23.1 0.1 8.7-3.3 17-9.4 23.2a522.29 522.29 0 0 1-88.6 72.1l-5.7 3.7 66.9 80.4c11.5 13.9 9.6 34.5-4.2 46.1-5.9 4.9-13.3 7.6-20.9 7.6-9.8 0-19-4.3-25.2-11.8l-75.3-90.6-4.2 1.9c-27.5 12.3-56.3 22.3-85.7 29.6l-5.6 1.4 19.3 94.2c1.8 8.6 0.1 17.3-4.7 24.6-4.8 7.3-12.2 12.3-20.7 14-1.9 0.6-4.1 0.8-6.4 0.8z" fill="#A8A8A8" p-id="4397"></path></svg>