<?xml version="1.0" standalone="no"?><!DOCTYPE svg PUBLIC "-//W3C//DTD SVG 1.1//EN" "http://www.w3.org/Graphics/SVG/1.1/DTD/svg11.dtd"><svg t="1664350598569" class="icon" viewBox="0 0 1024 1024" version="1.1" xmlns="http://www.w3.org/2000/svg" p-id="5144" xmlns:xlink="http://www.w3.org/1999/xlink" width="200" height="200"><path d="M889.8125 553.25H345.858125c-56.25 0-56.25-84.375 0-84.375H889.8125c56.25 0 56.25 84.375 0 84.375z m-0.3534375 347.8125H345.5046875c-56.25 0-56.25-84.375 0-84.375h543.954375c56.25 0 56.25 84.375 0 84.375z m0-694.6875H345.5046875c-56.25 0-56.25-84.375 0-84.375h543.954375c56.25 0 56.25 84.375 0 84.375zM152 225.125c-33.136875 0-60-26.863125-60-60 0-33.136875 26.863125-60 60-60 33.136875 0 60 26.863125 60 60 0 33.136875-26.863125 60-60 60z m0 694.6875c-33.136875 0-60-26.863125-60-60 0-33.136875 26.863125-60 60-60 33.136875 0 60 26.863125 60 60 0 33.136875-26.863125 60-60 60z m0-347.8125c-33.136875 0-60-26.863125-60-60 0-33.136875 26.863125-60 60-60 33.136875 0 60 26.863125 60 60 0 33.136875-26.863125 60-60 60z" p-id="5145"></path></svg>