<?xml version="1.0" standalone="no"?><!DOCTYPE svg PUBLIC "-//W3C//DTD SVG 1.1//EN" "http://www.w3.org/Graphics/SVG/1.1/DTD/svg11.dtd"><svg t="1709889023547" class="icon" viewBox="0 0 1602 1024" version="1.1" xmlns="http://www.w3.org/2000/svg" p-id="5178" xmlns:xlink="http://www.w3.org/1999/xlink" width="312.890625" height="200"><path d="M1203.71942 752.447072l-0.01484-682.75571-30.912928 0.014841 0.875594 658.803014H625.129739V543.165217h13.415884v171.957797h521.676058l-0.192927-142.944463H971.449507c-3.710145 0-6.707942-3.32429-6.707942-7.42029 0-3.650783 2.374493-6.678261 5.505855-7.301565l1.202087-0.118725h188.564406l-0.044522-25.036058H776.904348c-3.710145 0-6.707942-3.32429-6.707942-7.42029 0-3.635942 2.374493-6.678261 5.491014-7.301565l1.216928-0.118725H1159.93971l-0.638145-491.52h-516.600579v-13.356521h530.001623l0.044521 43.735188h44.373334v696.112232h148.910377c3.710145 0 6.707942 3.32429 6.707942 7.42029 0 3.650783-2.374493 6.678261-5.491015 7.301565l-1.216927 0.118725h-228.84174c-3.710145 0-6.707942-3.309449-6.707942-7.42029 0-3.635942 2.374493-6.678261 5.491015-7.286725l1.216927-0.133565h66.500638z m-145.051826 3.650783c3.710145 0 6.707942 3.32429 6.707942 7.42029 0 3.635942-2.374493 6.678261-5.491014 7.301565l-1.216928 0.118725H414.823884c-3.710145 0-6.707942-3.32429-6.707942-7.42029 0-3.635942 2.374493-6.678261 5.491015-7.301565l1.216927-0.118725h643.84371z" fill="#979797" p-id="5179"></path><path d="M1098.944928 457.817043c3.695304 0 6.678261 3.32429 6.67826 7.42029 0 3.635942-2.359652 6.678261-5.476174 7.301566l-1.187246 0.118724H845.171014c-3.695304 0-6.678261-3.32429-6.67826-7.42029 0-3.650783 2.359652-6.678261 5.476174-7.301565l1.187246-0.118725H1098.944928zM359.705971 767.539942l101.390841-162.281739-45.382493-28.627478-101.064348 161.747478 45.056 29.161739z m-7.123478 11.367884l-45.04116-29.161739-15.404521 24.650203a26.816928 26.816928 0 0 0 6.886029 35.825159l1.662145 1.127884c11.991188 7.494493 27.603478 4.36313 35.84-6.856347l1.113043-1.647305 14.959304-23.937855z m115.622956-185.017507l25.659363-41.063884-45.516058-28.434551-25.525797 40.870957 45.382492 28.627478z m4.006957-70.38887l21.325913-37.739594c-58.293797-41.256812-96.345043-109.196986-96.345044-185.996985 0-125.818435 102.103188-227.802899 228.070029-227.802899 125.952 0 228.070029 101.984464 228.070029 227.802899s-102.103188 227.802899-228.070029 227.802898a227.209275 227.209275 0 0 1-120.550029-34.385623l-21.132985 37.413101 28.761043 17.971942-163.320579 261.387131a40.217971 40.217971 0 0 1-55.444406 12.762898 40.217971 40.217971 0 0 1-12.822261-55.429565L444.074667 505.915362l28.152579 17.586087zM625.278145 85.363014c-118.546551 0-214.654145 95.98887-214.654145 214.401856 0 118.427826 96.107594 214.401855 214.654145 214.401855S839.917449 418.177855 839.917449 299.77971c0-118.412986-96.107594-214.401855-214.654145-214.401855z m0 40.203131c96.315362 0 174.406493 77.987246 174.406493 174.198725s-78.09113 174.198725-174.406493 174.198724c-96.315362 0-174.406493-77.987246-174.406493-174.198724S528.947942 125.566145 625.263304 125.566145z m0 13.386203c-88.909913 0-160.990609 72.006493-160.990609 160.812522s72.080696 160.812522 160.990609 160.812521c88.909913 0 160.990609-72.006493 160.990609-160.812521S714.173217 138.952348 625.263304 138.952348z m-53.663536 120.609391v-20.094145a46.925913 46.925913 0 0 1 46.955594-46.896232 46.925913 46.925913 0 0 1 46.955594 46.896232v20.094145h26.831768c14.825739 0 26.831768 12.006029 26.831768 26.802087v93.792464c0 14.810899-12.02087 26.816928-26.831768 26.816927h-147.574724a26.816928 26.816928 0 0 1-26.831769-26.802087v-93.792463c0-14.810899 12.02087-26.816928 26.831769-26.816928h26.831768z m13.415884 0h67.07942v-20.094145a33.52487 33.52487 0 0 0-31.328464-33.435826l-2.211246-0.074203a33.52487 33.52487 0 0 0-33.465507 31.313623l-0.074203 2.196406v20.094145z m-13.415884 13.401044h-26.831768a13.415884 13.415884 0 0 0-13.326841 11.842782l-0.089043 1.558261v93.792464c0 6.886029 5.179362 12.55513 11.857623 13.32684l1.558261 0.089044h147.574724a13.415884 13.415884 0 0 0 13.326841-11.842783l0.089043-1.558261v-93.792463a13.401043 13.401043 0 0 0-11.857623-13.326841l-1.558261-0.089043H571.599768z m54.865623 65.387594l0.103884 0.415536 0.118725 1.187246v40.217971c0 3.710145-3.32429 6.693101-7.42029 6.693102-3.635942 0-6.678261-2.374493-7.301565-5.491015l-0.118725-1.202087v-40.217971c0-0.371014 0.029681-0.742029 0.103884-1.098202a20.108986 20.108986 0 1 1 14.514087-0.50458z m-7.910029-25.184464a6.707942 6.707942 0 1 0 0 13.401044 6.707942 6.707942 0 0 0 0-13.401044zM1098.930087 101.64313c3.695304 0 6.693101 3.32429 6.693101 7.42029 0 3.635942-2.374493 6.678261-5.491014 7.301566l-1.202087 0.118724H830.330435c-3.695304 0-6.693101-3.32429-6.693102-7.42029 0-3.650783 2.374493-6.678261 5.491015-7.301565l1.202087-0.118725H1098.944928zM1084.356638 235.208348c3.546899 0 6.425971 3.32429 6.425971 7.42029 0 3.635942-2.270609 6.678261-5.268406 7.301565l-1.157565 0.118725H904.281043c-3.546899 0-6.425971-3.32429-6.425971-7.42029 0-3.650783 2.270609-6.678261 5.268406-7.301566l1.157565-0.118724h180.075595zM1529.143652 146.16487c3.784348 0 6.856348 3.32429 6.856348 7.420289 0 3.635942-2.419014 6.678261-5.62458 7.301566l-1.231768 0.118724H1364.769391c-3.784348 0-6.856348-3.32429-6.856348-7.42029 0-3.650783 2.419014-6.678261 5.62458-7.301565l1.231768-0.118724h164.374261z" fill="#979797" p-id="5180"></path><path d="M356.915942 532.019942c3.635942-0.059362 6.618899 2.374493 6.678261 5.416812 0.059362 2.715826-2.226087 5.001275-5.268406 5.505855l-1.187246 0.103884-268.851942 3.814029c-3.621101 0.044522-6.604058-2.374493-6.663421-5.431652-0.059362-2.700986 2.226087-4.986435 5.268406-5.491015l1.187247-0.118725 268.851942-3.799188zM223.469449 472.657623a6.39629 6.39629 0 0 1 6.559537 6.233044 6.366609 6.366609 0 0 1-5.194203 6.292405l-1.157566 0.133566-135.494492 2.181565a6.39629 6.39629 0 0 1-6.559537-6.233044 6.366609 6.366609 0 0 1 5.194203-6.307246l1.157566-0.118725 135.494492-2.181565z" fill="#979797" p-id="5181"></path></svg>