<?xml version="1.0" standalone="no"?><!DOCTYPE svg PUBLIC "-//W3C//DTD SVG 1.1//EN" "http://www.w3.org/Graphics/SVG/1.1/DTD/svg11.dtd"><svg t="1660724455249" class="icon" viewBox="0 0 1024 1024" version="1.1" xmlns="http://www.w3.org/2000/svg" p-id="3117" xmlns:xlink="http://www.w3.org/1999/xlink" width="200" height="200"><defs><style type="text/css">@font-face { font-family: feedback-iconfont; src: url("//at.alicdn.com/t/font_1031158_u69w8yhxdu.woff2?t=1630033759944") format("woff2"), url("//at.alicdn.com/t/font_1031158_u69w8yhxdu.woff?t=1630033759944") format("woff"), url("//at.alicdn.com/t/font_1031158_u69w8yhxdu.ttf?t=1630033759944") format("truetype"); }
</style></defs><path d="M512 128c211.936 0 383.776 171.84 383.776 383.776S723.936 895.552 512 895.552 128.224 723.712 128.224 511.776 300.064 128.032 512 128.032z m-63.936 190.016v13.024c0 3.008 2.464 5.44 5.44 5.44h114.752a5.44 5.44 0 0 0 5.44-5.44v-13.024a5.44 5.44 0 0 0-5.44-5.44h-114.72a5.44 5.44 0 0 0-5.44 5.44z m165.632 280.96a5.44 5.44 0 0 1 5.44 5.44v13.024a5.44 5.44 0 0 1-5.44 5.44h-205.632a5.44 5.44 0 0 1-5.44-5.44v-13.024a5.44 5.44 0 0 1 5.44-5.44h205.632z m0-150.016a5.44 5.44 0 0 1 5.44 5.44v13.024a5.44 5.44 0 0 1-5.44 5.44h-205.632a5.44 5.44 0 0 1-5.44-5.44V454.4a5.44 5.44 0 0 1 5.44-5.44h205.632z m0 75.008a5.44 5.44 0 0 1 5.44 5.44v13.024a5.44 5.44 0 0 1-5.44 5.44h-205.632a5.44 5.44 0 0 1-5.44-5.44v-13.024a5.44 5.44 0 0 1 5.44-5.44h205.632z m86.624 168.224V331.04a18.176 18.176 0 0 0-18.208-18.208h-64c-5.696 0.576-8.096 7.04-8.096 7.04l-20.256 33.216s-1.472 2.08-2.24 2.496c-0.64 0.352-2.496 0.448-2.496 0.448h-149.92s-1.408-0.16-1.92-0.448c-0.384-0.224-1.376-1.056-1.376-1.056l-21.12-34.624s-2.4-6.496-8.064-7.04h-63.872a18.176 18.176 0 0 0-18.176 18.176V692.16c0 10.048 8.16 18.176 18.176 18.176h343.36a18.176 18.176 0 0 0 18.208-18.176z" p-id="3118"></path></svg>