<?xml version="1.0" standalone="no"?><!DOCTYPE svg PUBLIC "-//W3C//DTD SVG 1.1//EN" "http://www.w3.org/Graphics/SVG/1.1/DTD/svg11.dtd"><svg t="1662369877991" class="icon" viewBox="0 0 1024 1024" version="1.1" xmlns="http://www.w3.org/2000/svg" p-id="2677" xmlns:xlink="http://www.w3.org/1999/xlink" width="200" height="200"><path d="M774.9 214c-39.8 15.4-98.9 20.3-180.9-15.5-176.7-77-247 0-247 0v-42.2c0-22-17.8-39.8-39.8-39.8s-39.8 17.8-39.8 39.8v685.4c0 22 17.8 39.8 39.8 39.8s39.8-17.8 39.8-39.8V567.4s70.3-77 247 0c132.8 57.9 205.5 9.4 233.5-18.2 8.9-8.8 13.6-20.9 13.6-33.4v-258c-0.1-34-34.5-56.1-66.2-43.8z" fill="#221714" p-id="2678"></path></svg>