<?xml version="1.0" encoding="UTF-8"?>
<svg width="34px" height="34px" viewBox="0 0 34 34" version="1.1" xmlns="http://www.w3.org/2000/svg" xmlns:xlink="http://www.w3.org/1999/xlink">
    <title>人民币</title>
    <g id="-" stroke="none" stroke-width="1" fill="none" fill-rule="evenodd">
        <g id="党费缴纳-交纳记录" transform="translate(-611.000000, -307.000000)" fill="#FFBA00" fill-rule="nonzero">
            <g id="人民币" transform="translate(611.000000, 307.000000)">
                <path d="M16.9834182,0.0332031636 C7.60352447,0.0332031636 0,7.63672764 0,17.0166214 C0,26.3965151 7.60352447,34.0000396 16.9834182,34.0000396 C26.3633119,34.0000396 33.9668364,26.3965151 33.9668364,17.0166214 C33.9668364,7.63672764 26.3633119,0.0332031636 16.9834182,0.0332031636 Z M27.4888992,27.5221023 C26.1242491,28.8867524 24.5338176,29.9592145 22.764089,30.7062857 C20.9345947,31.4832398 18.9888893,31.8750371 16.9834182,31.8750371 C14.9779471,31.8750371 13.0322417,31.4832398 11.1994271,30.709606 C9.42969847,29.9592145 7.84258725,28.8867524 6.47793723,27.5221023 C5.1132872,26.1574523 4.04082501,24.5670208 3.29375383,22.7972922 C2.5167998,20.9677978 2.12500247,19.0220924 2.12500247,17.0166214 C2.12500247,15.0111503 2.5167998,13.0654449 3.29043352,11.2326303 C4.0375047,9.46290164 5.10996688,7.87579041 6.47461691,6.50782007 C7.83926693,5.13984973 9.42969847,4.07070786 11.1994271,3.32363668 C13.0322417,2.55000297 14.9779471,2.15820564 16.9834182,2.15820564 C18.9888893,2.15820564 20.9345947,2.55000297 22.7674093,3.32363668 C24.5371379,4.07070786 26.1242491,5.14317005 27.4922195,6.50782007 C28.8601898,7.8724701 29.9293317,9.46290164 30.6764029,11.2326303 C31.4500366,13.0621246 31.8418339,15.00783 31.8418339,17.0166214 C31.8418339,19.0254128 31.4500366,20.9677978 30.6764029,22.8006125 C29.9260114,24.5703411 28.8535492,26.1574523 27.4888992,27.5221023 Z" id="形状"></path>
                <path d="M17.0166214,3.71875433 C9.69200347,3.71875433 3.75195749,9.6588003 3.75195749,16.9834182 C3.75195749,24.3080361 9.69200347,30.2480821 17.0166214,30.2480821 C24.3412393,30.2480821 30.2812852,24.3080361 30.2812852,16.9834182 C30.2812852,9.6588003 24.3412393,3.71875433 17.0166214,3.71875433 Z M23.4679961,11.1496223 L19.9717029,14.6492358 C19.888695,14.7322437 19.9484607,14.8750173 20.0646718,14.8750173 L22.6445576,14.8750173 C22.7176046,14.8750173 22.7773703,14.934783 22.7773703,15.00783 L22.7773703,16.8672071 C22.7773703,16.9402541 22.7176046,17.0000198 22.6445576,17.0000198 L18.26174,17.0000198 C18.1156461,17.0000198 17.9961147,17.1195512 17.9961147,17.2656451 L17.9961147,18.9922096 C17.9961147,19.0652566 18.0558804,19.1250223 18.1289273,19.1250223 L22.6445576,19.1250223 C22.7176046,19.1250223 22.7773703,19.1847879 22.7773703,19.2578349 L22.7773703,21.1172121 C22.7773703,21.190259 22.7176046,21.2500247 22.6445576,21.2500247 L18.1289273,21.2500247 C18.0558804,21.2500247 17.9961147,21.3097904 17.9961147,21.3828374 L17.9961147,24.3047158 C17.9961147,24.3777627 17.936349,24.4375284 17.863302,24.4375284 L16.0039249,24.4375284 C15.9308779,24.4375284 15.8711122,24.3777627 15.8711122,24.3047158 L15.8711122,21.3828374 C15.8711122,21.3097904 15.8113465,21.2500247 15.7382996,21.2500247 L11.2226693,21.2500247 C11.1496223,21.2500247 11.0898567,21.190259 11.0898567,21.1172121 L11.0898567,19.2578349 C11.0898567,19.1847879 11.1496223,19.1250223 11.2226693,19.1250223 L15.7382996,19.1250223 C15.8113465,19.1250223 15.8711122,19.0652566 15.8711122,18.9922096 L15.8711122,17.2656451 C15.8711122,17.1195512 15.7515808,17.0000198 15.6054869,17.0000198 L11.2226693,17.0000198 C11.1496223,17.0000198 11.0898567,16.9402541 11.0898567,16.8672071 L11.0898567,15.00783 C11.0898567,14.934783 11.1496223,14.8750173 11.2226693,14.8750173 L13.5369298,14.8750173 C13.6564612,14.8750173 13.7129066,14.7322437 13.6298987,14.6492358 L10.1336055,11.1496223 C10.0804805,11.0964973 10.0804805,11.0134894 10.1336055,10.9603643 L11.4484508,9.64551904 C11.5015759,9.59239397 11.5845838,9.59239397 11.6377089,9.64551904 L16.4289254,14.4367355 C16.634785,14.6425952 16.9734573,14.6425952 17.1793169,14.4367355 L21.9705334,9.64551904 C22.0236584,9.59239397 22.1066663,9.59239397 22.1597914,9.64551904 L23.4746367,10.9603643 C23.5211211,11.0134894 23.5211211,11.0998176 23.4679961,11.1496223 L23.4679961,11.1496223 Z" id="形状"></path>
            </g>
        </g>
    </g>
</svg>