<?xml version="1.0" standalone="no"?><!DOCTYPE svg PUBLIC "-//W3C//DTD SVG 1.1//EN" "http://www.w3.org/Graphics/SVG/1.1/DTD/svg11.dtd"><svg t="1694140982663" class="icon" viewBox="0 0 1077 1024" version="1.1" xmlns="http://www.w3.org/2000/svg" p-id="9903" id="mx_n_1694140982666" xmlns:xlink="http://www.w3.org/1999/xlink" width="210.3515625" height="200"><path d="M754.526316 0a107.789474 107.789474 0 0 1 107.789473 107.789474v378.448842a300.193684 300.193684 0 0 0-53.894736 0V107.789474a53.894737 53.894737 0 0 0-53.894737-53.894737H107.789474a53.894737 53.894737 0 0 0-53.517474 47.589052L53.894737 107.789474v646.736842a53.894737 53.894737 0 0 0 47.589052 53.517473L107.789474 808.421053h432.343579c1.670737 18.539789 5.066105 36.540632 9.970526 53.894736H107.789474a107.789474 107.789474 0 0 1-107.789474-107.789473V107.789474a107.789474 107.789474 0 0 1 107.789474-107.789474h646.736842z m-197.254737 461.338947l37.726316 10.24a625.879579 625.879579 0 0 1-41.768421 102.561685l-9.970527 18.162526h63.865264c-9.431579 11.371789-18.000842 23.444211-25.653895 36.109474H204.261053v-36.109474h297.498947c21.018947-36.648421 39.343158-80.303158 55.511579-130.964211z m-257.616842 6.467369c13.042526 24.252632 24.953263 51.900632 35.73221 82.243368l6.305685 18.53979-35.031579 9.162105a533.989053 533.989053 0 0 0-32.067369-79.656421L264.623158 479.124211l35.031579-11.317895z m124.496842-10.778948c10.347789 26.031158 19.941053 55.080421 28.456421 87.417264l4.958316 19.833263-34.492632 9.162105a749.891368 749.891368 0 0 0-26.408421-84.830316l-8.08421-20.264421 35.570526-11.317895z m147.132632-51.738947v34.492632H291.570526v-34.492632h279.713685z m-127.730527-118.568421c60.146526 44.139789 129.024 79.979789 206.255158 107.142737l26.031158 8.730947-18.863158 33.414737C568.589474 405.827368 493.675789 367.023158 431.157895 318.517895c-52.385684 41.498947-120.131368 77.608421-203.290948 108.597894L204.8 435.469474l-18.324211-33.414737c84.291368-28.402526 156.079158-62.625684 215.04-103.046737l17.246316-12.288h24.791579zM261.928421 150.905263l37.726316 8.084211a529.785263 529.785263 0 0 1-9.162105 26.947368l-4.850527 12.934737h141.743158v34.492632H349.776842c6.467368 14.174316 12.341895 27.701895 17.138526 40.421052l4.419369 12.39579-35.570526 12.934736a569.882947 569.882947 0 0 0-17.785264-49.798736l-7.006315-15.952842h-40.96a488.286316 488.286316 0 0 1-37.025685 60.523789l-10.401684 13.850947-33.414737-21.018947A395.048421 395.048421 0 0 0 261.928421 150.905263z m225.818947 0l37.187369 8.084211c-2.856421 9.323789-5.766737 18.216421-8.623158 26.947368l-4.311579 12.934737h157.372632v34.492632h-85.692632c8.892632 15.36 16.276211 29.803789 22.366316 43.816421l5.658947 13.850947-35.570526 12.934737c-6.467368-16.168421-13.419789-32.121263-20.857263-47.642948l-11.479579-22.959157h-46.888421a501.221053 501.221053 0 0 1-22.959158 40.421052l-8.29979 12.39579-32.875789-21.018948c25.330526-34.492632 43.654737-72.218947 54.972631-114.256842z" fill="currentColor" p-id="9904"></path><path d="M835.368421 559.157895a222.315789 222.315789 0 1 1 0 444.631579 222.315789 222.315789 0 0 1 0-444.631579z m57.829053 135.545263l-2.15579 3.233684-78.470737 135.976421-50.122105-38.480842a23.713684 23.713684 0 0 0-32.875789 8.784842c-5.928421 10.509474-3.233684 23.713684 5.766736 31.151158l3.233685 2.263579 70.656 50.661053 3.072 1.616842a23.659789 23.659789 0 0 0 27.863579-6.844632l2.263579-3.341474 90.327579-157.103157a24.791579 24.791579 0 0 0-8.946527-33.414737 23.713684 23.713684 0 0 0-30.61221 5.497263z" fill="#52C41A" p-id="9905"></path></svg>