<?xml version="1.0" encoding="UTF-8"?>
<svg width="18px" height="19px" viewBox="0 0 18 19" version="1.1" xmlns="http://www.w3.org/2000/svg" xmlns:xlink="http://www.w3.org/1999/xlink">
    <!-- Generator: Sketch 61.1 (89650) - https://sketch.com -->
    <title>shu</title>
    <desc>Created with Sketch.</desc>
    <g id="页面-1" stroke="none" stroke-width="1" fill="none" fill-rule="evenodd">
        <g id="组织管理" transform="translate(-102.000000, -485.000000)" fill-rule="nonzero">
            <g id="shu" transform="translate(99.000000, 482.000000)">
                <rect id="矩形" fill="#000000" opacity="0" x="0" y="0" width="24" height="24"></rect>
                <path d="M3.85673717,19.7394383 C3.62026122,19.7394383 3.42857143,19.5477485 3.42857143,19.3112726 L3.42857143,18.0267753 C3.42857143,17.7902994 3.62026122,17.5986096 3.85673717,17.5986096 C4.09321311,17.5986096 4.2849029,17.7902994 4.2849029,18.0267753 L4.2849029,19.3112726 C4.2849029,19.5477485 4.09321311,19.7394383 3.85673717,19.7394383 L3.85673717,19.7394383 Z M3.85673717,17.1704439 C3.62026122,17.1704439 3.42857143,16.9787541 3.42857143,16.7422781 L3.42857143,15.4577809 C3.42857143,15.2213049 3.62026122,15.0296151 3.85673717,15.0296151 C4.09321311,15.0296151 4.2849029,15.2213049 4.2849029,15.4577809 L4.2849029,16.7422781 C4.2849029,16.9787541 4.09321311,17.1704439 3.85673717,17.1704439 L3.85673717,17.1704439 Z M3.85673717,14.6014494 C3.62026122,14.6014494 3.42857143,14.4097596 3.42857143,14.1732837 L3.42857143,12.8887864 C3.42857143,12.6523105 3.62026122,12.4606207 3.85673717,12.4606207 C4.09321311,12.4606207 4.2849029,12.6523105 4.2849029,12.8887864 L4.2849029,14.1732837 C4.2849029,14.4097596 4.09321311,14.6014494 3.85673717,14.6014494 L3.85673717,14.6014494 Z M3.85673717,12.032455 C3.62026122,12.032455 3.42857143,11.8407652 3.42857143,11.6042892 L3.42857143,10.319792 C3.42857143,10.083316 3.62026122,9.89162625 3.85673717,9.89162625 C4.09321311,9.89162625 4.2849029,10.083316 4.2849029,10.319792 L4.2849029,11.6042892 C4.2849029,11.8407652 4.09321311,12.032455 3.85673717,12.032455 L3.85673717,12.032455 Z M3.85673717,9.46346051 C3.62026122,9.46346051 3.42857143,9.27177071 3.42857143,9.03529477 L3.42857143,7.75079754 C3.42857143,7.5143216 3.62026122,7.3226318 3.85673717,7.3226318 C4.09321311,7.3226318 4.2849029,7.5143216 4.2849029,7.75079754 L4.2849029,9.03529477 C4.2849029,9.27177071 4.09321311,9.46346051 3.85673717,9.46346051 L3.85673717,9.46346051 Z M3.85673717,6.89446606 C3.62026122,6.89446606 3.42857143,6.70277627 3.42857143,6.4663003 L3.42857143,5.18180309 C3.42857143,4.94532715 3.62026122,4.75363735 3.85673717,4.75363735 C4.09321311,4.75363735 4.2849029,4.94532715 4.2849029,5.18180309 L4.2849029,6.4663003 C4.2849029,6.70277625 4.09321311,6.89446606 3.85673717,6.89446606 L3.85673717,6.89446606 Z M3.85673717,4.32547162 C3.62026122,4.32547162 3.42857143,4.13378182 3.42857143,3.89730586 L3.42857143,3.85673717 C3.42857143,3.62026122 3.62026122,3.42857143 3.85673717,3.42857143 C4.09321311,3.42857143 4.2849029,3.62026122 4.2849029,3.85673717 L4.2849029,3.89730586 C4.2849029,4.1337818 4.09321311,4.32547162 3.85673717,4.32547162 L3.85673717,4.32547162 Z M20.1432628,21.2258157 L18.8587656,21.2258157 C18.6222897,21.2258157 18.4305999,21.0341259 18.4305999,20.7976499 C18.4305999,20.561174 18.6222897,20.3694842 18.8587656,20.3694842 L20.1432628,20.3694842 C20.3797388,20.3694842 20.5714286,20.561174 20.5714286,20.7976499 C20.5714286,21.0341259 20.3797388,21.2258157 20.1432628,21.2258157 Z M17.5742684,21.2258157 L16.2897712,21.2258157 C16.0532952,21.2258157 15.8616054,21.0341259 15.8616054,20.7976499 C15.8616054,20.561174 16.0532952,20.3694842 16.2897712,20.3694842 L17.5742684,20.3694842 C17.8107443,20.3694842 18.0024341,20.561174 18.0024341,20.7976499 C18.0024341,21.0341259 17.8107443,21.2258157 17.5742684,21.2258157 Z M15.0052739,21.2258157 L13.7207767,21.2258157 C13.4843008,21.2258157 13.292611,21.0341259 13.292611,20.7976499 C13.292611,20.561174 13.4843008,20.3694842 13.7207767,20.3694842 L15.0052739,20.3694842 C15.2417499,20.3694842 15.4334397,20.561174 15.4334397,20.7976499 C15.4334397,21.0341259 15.2417499,21.2258157 15.0052739,21.2258157 Z M12.4362795,21.2258157 L11.1517823,21.2258157 C10.9153063,21.2258157 10.7236165,21.0341259 10.7236165,20.7976499 C10.7236165,20.561174 10.9153063,20.3694842 11.1517823,20.3694842 L12.4362795,20.3694842 C12.6727554,20.3694842 12.8644452,20.561174 12.8644452,20.7976499 C12.8644452,21.0341259 12.6727554,21.2258157 12.4362795,21.2258157 Z M9.86728502,21.2258157 L8.58278781,21.2258157 C8.34631187,21.2258157 8.15462207,21.0341259 8.15462207,20.7976499 C8.15462207,20.561174 8.34631187,20.3694842 8.58278781,20.3694842 L9.86728502,20.3694842 C10.103761,20.3694842 10.2954508,20.561174 10.2954508,20.7976499 C10.2954508,21.0341259 10.103761,21.2258157 9.86728502,21.2258157 Z M7.29829058,21.2258157 L6.01379336,21.2258157 C5.77731742,21.2258157 5.58562763,21.0341259 5.58562763,20.7976499 C5.58562763,20.561174 5.77731742,20.3694842 6.01379336,20.3694842 L7.29829058,20.3694842 C7.53476652,20.3694842 7.72645634,20.561174 7.72645634,20.7976499 C7.72645634,21.0341259 7.53476654,21.2258157 7.29829058,21.2258157 Z M4.72929613,21.2258157 L3.85673717,21.2258157 C3.62026122,21.2258157 3.42857143,21.0341259 3.42857143,20.7976499 C3.42857143,20.561174 3.62026122,20.3694842 3.85673717,20.3694842 L4.72929613,20.3694842 C4.96577207,20.3694842 5.15746187,20.561174 5.15746187,20.7976499 C5.15746187,21.0341259 4.96577207,21.2258157 4.72929613,21.2258157 L4.72929613,21.2258157 Z" id="形状" fill="#999999"></path>
            </g>
        </g>
    </g>
</svg>