<?xml version="1.0" standalone="no"?><!DOCTYPE svg PUBLIC "-//W3C//DTD SVG 1.1//EN" "http://www.w3.org/Graphics/SVG/1.1/DTD/svg11.dtd"><svg t="1662446540732" class="icon" viewBox="0 0 1024 1024" version="1.1" xmlns="http://www.w3.org/2000/svg" p-id="7658" xmlns:xlink="http://www.w3.org/1999/xlink" width="200" height="200"><path d="M511.3 794.8c-52.9 0-107.5-14.5-162.3-43-42.8-22.3-85.9-53.3-128.1-92-71.2-65.4-115-130-116.8-132.8-6.1-9.1-6.1-21 0-30.2 1.8-2.7 45.7-67.4 116.8-132.8 42.2-38.7 85.3-69.7 128.1-92 54.8-28.6 109.4-43 162.3-43 52.9 0 107.5 14.5 162.3 43 42.8 22.3 85.9 53.3 128.1 92 71.2 65.4 115 130 116.8 132.8 6.1 9.1 6.1 21 0 30.2-1.8 2.7-45.7 67.4-116.8 132.8-42.2 38.7-85.3 69.7-128.1 92-54.8 28.5-109.4 43-162.3 43zM159.8 511.9c16.7 22.2 51.5 65.8 98.5 108.9 59.8 54.8 152.3 120.1 253 120.1 100.7 0 193.2-65.3 253-120.1 47-43 81.9-86.6 98.5-108.9-16.7-22.2-51.5-65.8-98.5-108.9-59.8-54.8-152.2-120-253-120-167.1 0-311.6 175.7-351.5 228.9z" p-id="7659"></path><path d="M511.3 644.4c-73.1 0-132.5-59.5-132.5-132.5 0-73.1 59.5-132.5 132.5-132.5 73.1 0 132.5 59.5 132.5 132.5 0.1 73.1-59.4 132.5-132.5 132.5z m0-211.1c-43.3 0-78.5 35.2-78.5 78.5s35.2 78.5 78.5 78.5 78.5-35.2 78.5-78.5-35.2-78.5-78.5-78.5z" p-id="7660"></path></svg>